<?xml version="1.0" standalone="no"?>
<!DOCTYPE svg PUBLIC "-//W3C//DTD SVG 20010904//EN"
 "http://www.w3.org/TR/2001/REC-SVG-20010904/DTD/svg10.dtd">
<svg version="1.0" xmlns="http://www.w3.org/2000/svg"
 width="1160.000000pt" height="1160.000000pt" viewBox="0 0 1160.000000 1160.000000"
 preserveAspectRatio="xMidYMid meet">
<metadata>
Created by potrace 1.14, written by Peter Selinger 2001-2017
</metadata>
<g transform="translate(0.000000,1160.000000) scale(0.100000,-0.100000)"
fill="#000000" stroke="none">
<path d="M2768 10415 c-1 -2 -68 -6 -148 -9 -80 -4 -163 -8 -185 -11 -22 -2
-83 -7 -135 -10 -92 -6 -134 -10 -230 -20 -25 -2 -72 -6 -105 -9 -33 -3 -76
-8 -95 -11 -19 -3 -51 -7 -70 -10 -19 -2 -51 -6 -70 -9 -19 -3 -57 -8 -85 -11
-27 -3 -75 -10 -105 -15 -30 -5 -75 -12 -100 -15 -25 -3 -53 -8 -62 -11 -9 -3
-32 -7 -50 -9 -43 -4 -119 -17 -178 -30 -14 -3 -36 -8 -50 -11 -14 -3 -51 -9
-82 -14 -32 -4 -62 -11 -68 -15 -5 -3 -24 -8 -42 -9 -18 -2 -96 -19 -173 -36
-77 -18 -149 -34 -160 -36 -11 -1 -20 -3 -20 -4 0 -1 -7 -3 -15 -5 -102 -26
-130 -31 -135 -27 -3 3 -5 1 -5 -5 0 -5 -6 -10 -12 -11 -7 0 -22 -3 -33 -5
-11 -3 -33 -8 -50 -12 -89 -21 -168 -56 -242 -106 -23 -16 -47 -29 -53 -29 -8
0 -10 -28 -7 -92 l5 -93 38 -2 c68 -4 382 -13 584 -18 312 -6 685 -20 685 -25
0 0 36 -3 80 -5 91 -4 194 -12 275 -21 30 -3 78 -8 105 -10 28 -3 70 -7 95 -9
50 -5 92 -9 195 -19 39 -4 81 -9 95 -12 14 -2 54 -6 90 -9 36 -3 75 -7 87 -9
20 -4 109 -15 178 -21 17 -2 44 -5 60 -8 17 -3 57 -8 90 -12 33 -3 71 -8 85
-10 14 -2 50 -6 80 -9 30 -4 66 -8 80 -10 14 -3 52 -7 85 -11 32 -4 62 -8 65
-10 3 -1 32 -5 65 -9 83 -9 128 -14 210 -26 39 -6 88 -13 110 -15 22 -3 58 -8
80 -11 22 -4 51 -8 65 -10 14 -1 45 -6 70 -9 25 -4 56 -8 70 -9 43 -5 134 -18
154 -22 11 -2 40 -6 65 -9 25 -3 55 -7 67 -9 12 -2 45 -7 75 -11 30 -3 68 -9
84 -12 17 -4 33 -6 37 -5 15 4 125 -21 158 -35 90 -39 123 -59 151 -92 40 -48
41 -49 67 -101 41 -79 88 -160 100 -172 7 -7 12 -15 12 -20 0 -4 38 -72 85
-152 47 -80 85 -150 85 -155 0 -5 4 -11 8 -13 7 -3 146 -238 240 -408 13 -25
28 -49 32 -55 4 -5 20 -32 35 -60 82 -150 100 -181 108 -186 5 -3 9 -10 9 -15
0 -10 13 -35 82 -164 64 -118 264 -522 268 -540 2 -8 6 -17 9 -20 8 -7 115
-256 134 -313 38 -112 51 -255 32 -335 -12 -45 -69 -132 -110 -166 -47 -38
-169 -102 -209 -110 -15 -2 -35 -9 -45 -14 -10 -5 -38 -13 -63 -18 -25 -4 -47
-8 -50 -9 -3 -1 -27 -5 -55 -10 -27 -4 -59 -9 -70 -11 -33 -7 -144 -18 -280
-28 -44 -4 -105 -9 -135 -12 -77 -7 -143 -12 -230 -18 -147 -10 -256 -18 -288
-21 -18 -1 -34 -4 -36 -6 -18 -23 -86 -130 -86 -137 0 -5 32 -38 72 -73 40
-35 83 -75 97 -87 15 -13 53 -47 85 -75 33 -29 77 -69 98 -90 21 -21 38 -36
38 -33 0 2 15 -10 33 -27 49 -48 255 -229 285 -252 7 -5 23 -20 34 -32 12 -13
28 -23 35 -23 7 0 13 -4 13 -10 0 -11 114 -90 129 -90 6 0 11 -4 11 -8 0 -5
18 -15 40 -22 22 -7 40 -16 40 -21 0 -4 10 -9 23 -13 31 -8 123 -68 179 -116
124 -109 202 -143 309 -138 99 6 206 70 354 211 140 134 380 255 600 304 39 8
97 22 130 30 33 7 74 15 90 17 17 2 30 5 30 6 0 2 21 7 70 15 53 10 70 13 70
15 0 1 16 3 35 4 19 2 51 7 70 11 19 5 37 9 40 10 3 1 30 5 60 9 30 5 64 10
75 13 11 2 31 6 45 8 14 2 41 6 60 10 19 4 46 8 60 10 14 2 41 6 60 10 19 4
46 9 60 10 14 2 25 4 25 5 0 1 14 3 30 5 17 1 77 12 135 24 58 12 119 23 135
26 17 2 30 5 30 6 0 1 9 3 20 4 11 1 61 12 110 24 50 13 104 25 120 27 42 7
204 7 240 0 17 -3 50 -8 74 -11 41 -5 105 -20 141 -33 8 -3 24 -7 35 -9 18 -3
106 -35 180 -64 17 -7 32 -13 35 -14 3 -1 37 -16 75 -35 39 -18 73 -33 78 -32
4 1 7 -2 7 -6 0 -5 12 -14 28 -21 29 -13 164 -92 172 -101 5 -5 108 -75 139
-95 9 -5 28 -22 43 -37 16 -15 28 -25 28 -23 0 8 68 -54 150 -135 164 -163
265 -328 305 -495 7 -30 12 -71 20 -170 3 -27 7 -81 11 -120 4 -38 7 -80 7
-92 1 -13 3 -23 7 -23 3 0 5 -19 6 -43 0 -40 5 -94 21 -232 4 -33 7 -81 7
-107 1 -27 3 -48 6 -48 3 0 7 -21 8 -48 2 -26 5 -60 7 -77 8 -61 15 -132 20
-190 3 -33 7 -78 10 -100 7 -51 13 -115 19 -185 3 -30 8 -68 10 -85 3 -16 8
-61 12 -100 3 -38 8 -83 10 -100 2 -16 6 -55 9 -85 9 -82 13 -115 15 -115 0 0
3 -27 5 -60 3 -33 7 -76 9 -95 3 -19 7 -60 10 -90 3 -30 7 -75 11 -100 13
-113 20 -174 31 -280 5 -55 15 -142 19 -175 2 -16 7 -57 10 -90 3 -33 8 -80
11 -105 3 -25 7 -63 9 -85 2 -22 4 -40 5 -40 1 0 3 -27 5 -60 2 -33 7 -76 11
-95 3 -19 8 -55 10 -80 8 -96 5 -94 82 -53 37 20 69 40 72 43 3 4 20 13 38 21
17 8 32 17 32 21 0 4 13 14 29 23 65 33 240 188 324 286 48 57 46 53 97 129
25 36 47 67 50 70 3 3 14 23 25 45 11 22 23 42 27 45 11 9 108 220 113 248 2
14 10 29 17 34 7 4 10 8 6 8 -4 0 1 24 12 52 15 44 49 150 56 181 1 4 3 8 4
10 1 1 4 13 5 27 2 14 18 79 34 145 17 66 33 134 36 150 2 17 8 44 11 60 4 17
8 39 9 50 2 11 4 20 5 20 2 0 6 18 13 60 3 17 15 84 27 150 20 110 26 146 35
215 2 14 4 25 5 25 1 0 3 14 5 30 1 17 6 53 10 80 4 28 9 66 10 85 2 19 4 35
5 35 1 0 3 11 4 25 3 31 17 135 21 164 2 11 6 53 10 91 3 39 8 88 11 111 3 22
7 62 9 90 2 27 4 49 5 49 1 0 7 73 16 190 3 44 7 96 8 115 2 19 7 87 11 150 4
63 9 135 12 160 2 25 6 212 9 415 4 259 3 383 -5 415 -7 25 -14 55 -16 66 -3
12 -11 37 -19 55 -8 19 -15 37 -16 41 0 4 -16 35 -35 69 -19 33 -35 63 -35 65
0 13 -114 146 -159 186 -66 60 -228 166 -258 169 -5 1 -18 5 -30 10 -71 27
-168 49 -238 54 -27 2 -50 4 -50 5 0 0 -108 2 -240 4 -132 2 -256 7 -275 10
-19 3 -55 8 -80 11 -87 9 -198 27 -340 55 -30 6 -71 13 -90 16 -19 3 -42 8
-50 11 -8 3 -26 8 -40 10 -20 3 -62 12 -130 28 -3 1 -23 5 -45 10 -56 13 -55
12 -57 15 -3 1 -25 7 -52 13 -26 5 -184 88 -196 102 -7 8 -17 15 -22 15 -15 0
-99 82 -122 120 -12 19 -30 64 -40 100 -18 66 -68 179 -96 215 -132 171 -328
237 -590 199 -72 -11 -334 -11 -385 -1 -88 19 -175 47 -175 58 0 5 -7 9 -15 9
-45 0 -285 206 -285 245 0 7 -4 15 -9 17 -10 4 -90 145 -115 203 -10 22 -24
52 -32 66 -7 14 -11 29 -7 33 3 3 1 6 -5 6 -7 0 -12 6 -12 13 0 10 -28 89 -65
182 -8 19 -11 30 -18 58 -2 6 -11 29 -20 51 -9 21 -17 44 -17 51 0 7 -7 29
-15 49 -8 20 -15 38 -15 41 1 8 -11 59 -17 75 -4 8 -8 26 -10 40 -2 14 -6 32
-10 40 -3 8 -8 24 -10 34 -2 10 -13 55 -24 100 -12 45 -23 92 -26 106 -2 14
-9 43 -14 65 -5 22 -12 51 -15 65 -3 14 -19 81 -36 149 -16 69 -31 132 -34
140 -22 97 -71 265 -98 339 -8 23 -13 42 -11 42 2 0 -12 31 -31 70 -18 38 -34
74 -34 80 0 5 -4 10 -10 10 -5 0 -10 4 -10 10 0 10 -25 48 -75 115 -34 47
-155 165 -168 165 -5 0 -15 7 -23 15 -9 8 -27 18 -42 22 -15 3 -29 9 -32 12
-5 6 -193 59 -235 66 -11 2 -32 8 -47 14 -16 6 -28 8 -28 6 0 -2 -12 0 -27 6
-16 6 -39 13 -53 16 -43 8 -55 11 -55 13 0 1 -13 4 -30 6 -16 3 -37 7 -45 11
-8 3 -26 8 -40 10 -14 2 -59 13 -101 23 -42 11 -87 22 -100 24 -13 3 -24 5
-24 6 0 1 -11 3 -25 5 -23 3 -47 8 -102 20 -34 7 -55 11 -148 29 -47 9 -96 18
-110 21 -60 12 -87 17 -121 20 -20 1 -41 5 -47 9 -5 3 -29 8 -53 11 -24 2 -60
7 -79 10 -55 9 -84 13 -173 25 -45 6 -93 13 -107 15 -24 3 -45 6 -165 21 -27
3 -68 7 -91 8 -22 2 -45 5 -50 8 -8 5 -46 7 -151 10 -18 1 -33 4 -33 7 0 3
-24 6 -53 7 -48 1 -137 6 -312 19 -80 6 -971 15 -977 10z"/>
</g>
</svg>
