<?xml version="1.0" encoding="utf-8"?>
<!-- Generator: Adobe Illustrator 23.0.1, SVG Export Plug-In . SVG Version: 6.00 Build 0)  -->
<svg version="1.1" id="Слой_1" xmlns="http://www.w3.org/2000/svg" xmlns:xlink="http://www.w3.org/1999/xlink" x="0px" y="0px"
	 width="131.6px" height="22.5px" viewBox="0 0 131.6 22.5" style="enable-background:new 0 0 131.6 22.5;" xml:space="preserve">
<path d="M61,7.1c-1.5,0-2.7,0.5-3.7,1.5c-1,1-1.5,2.3-1.5,3.8c0,1.6,0.5,2.8,1.6,3.8c1.1,1,2.4,1.5,4.1,1.5c1.3,0,2.6-0.3,3.8-0.9
	v-2c-1.1,0.6-2.4,1-3.8,1c-1.7,0-3.2-0.7-3.6-2.6h7.8c0.1-0.2,0.1-0.7,0.1-1.2c0-1-0.2-2.2-1.2-3.3C63.7,7.6,62.4,7.1,61,7.1z
	 M60.9,9.1c1.3,0,2.6,0.8,2.8,2.3H58C58.3,9.8,59.6,9.1,60.9,9.1z"/>
<path d="M95,7.2c-1,0-2.3,0.4-3,1.2v-1h-2.1v10H92v-5c0-2.3,1.5-3.1,3.2-3.1c0.1,0,0.2,0,0.4,0v-2C95.4,7.2,95.1,7.2,95,7.2z"/>
<path d="M72.2,12.3l3.7-4.9h-2.5l-3.7,4.9l3.9,5.1H76L72.2,12.3L72.2,12.3z"/>
<path d="M69.6,3.3h-2.1v14h2.1V3.3z"/>
<path d="M42.6,10.5V9.9h-6.5v2h4.3v2.9c-1,0.4-2,0.6-3.1,0.6c-1.5,0-2.7-0.5-3.7-1.5c-0.9-0.9-1.4-2.1-1.4-3.6
	c0-1.5,0.5-2.6,1.4-3.6c0.9-0.9,2.4-1.5,4.3-1.5c1.5,0,2.9,0.3,4.1,1V4c-1.3-0.6-2.6-0.9-4.1-0.9c-2.4,0-4.5,0.8-5.8,2.1
	C30.7,6.6,30,8.4,30,10.4c0,2,0.7,3.8,2.1,5.1c1.4,1.4,3.2,2.1,5.3,2.1c1.9,0,3.7-0.5,5.3-1.5v-0.9L42.6,10.5L42.6,10.5z"/>
<path d="M53.1,8.6c-0.9-0.9-2.2-1.5-3.5-1.5c-1.5,0-2.7,0.5-3.7,1.5c-1,1-1.5,2.3-1.5,3.8c0,1.6,0.5,2.8,1.6,3.8
	c0.3,0.3,0.7,0.5,1,0.7c0.9,0.5,1.9,0.7,3.1,0.7c1.3,0,2.6-0.3,3.8-0.9v-2c-0.3,0.1-0.5,0.3-0.8,0.4c-0.9,0.4-2,0.6-3,0.6
	c-1.7,0-3.2-0.7-3.6-2.6h6.6h1.2c0.1-0.2,0.1-0.7,0.1-1.2C54.4,10.9,54.1,9.7,53.1,8.6C53.1,8.6,53.1,8.6,53.1,8.6z M52.3,11.4h-5.8
	c0.3-1.6,1.6-2.3,3-2.3C50.7,9.1,52.1,9.9,52.3,11.4z"/>
<path d="M111.1,7.4H109v10h2.1V7.4z"/>
<path d="M110,3c-0.4,0-0.7,0.1-0.9,0.4c-0.3,0.3-0.4,0.6-0.4,1s0.1,0.7,0.4,1c0.3,0.3,0.6,0.4,0.9,0.4s0.7-0.1,0.9-0.4
	c0.3-0.3,0.4-0.6,0.4-1s-0.1-0.7-0.4-1C110.7,3.1,110.4,3,110,3z"/>
<path d="M131.6,14.6c0-0.6-0.2-1.1-0.5-1.5c-0.6-0.9-1.8-1.3-3.1-1.7c-0.5-0.1-1.1-0.3-1.6-0.5c-0.4-0.2-0.5-0.4-0.5-0.8h0h0
	c0-0.7,0.8-1,1.9-1c1.2,0,2.4,0.3,3.4,0.8V7.8c-1.1-0.5-2.2-0.7-3.4-0.7c-1.1,0-2.2,0.2-2.9,0.8c-0.7,0.6-1,1.3-1,2.2
	c0,1.9,1.7,2.7,3.6,3.2c0.5,0.1,1.1,0.3,1.6,0.5c0.4,0.2,0.5,0.4,0.5,0.8c0,0.7-0.7,1-2,1c-1.3,0-2.5-0.2-3.6-0.6v1.9
	c1.1,0.4,2.4,0.6,3.6,0.6c1.1,0,2.2-0.3,2.9-0.8c0.3-0.2,0.5-0.4,0.6-0.6C131.4,15.8,131.6,15.2,131.6,14.6z"/>
<path d="M86.3,10c0.9-0.7,1.4-1.6,1.4-2.7c0-1.1-0.4-2.1-1.2-2.8c-0.8-0.7-2-1.1-3.1-1.1h-5.9v14h6.4c1.2,0,2.3-0.4,3.2-1.1
	c0.8-0.7,1.2-1.7,1.2-2.9C88.2,12,87.5,10.7,86.3,10z M79.6,5.3h4c1.1,0,2,0.9,2,2c0,1.1-0.9,2-2,2h-4V5.3z M84,15.5h-4.4v-4.3H84
	c1.2,0,2.1,0.9,2.1,2.2C86,14.5,85.1,15.5,84,15.5z"/>
<path d="M117.9,9c1,0,1.6,0.3,2,0.9c0.4,0.5,0.5,1.2,0.5,1.7v5.8h2.1v-5.8c0-1.2-0.3-2.3-1-3.1c0,0,0,0,0,0
	c-0.7-0.8-1.6-1.3-2.9-1.3c-1.2,0-2.2,0.4-2.9,1V7.4h-2.1v10h2.1v-5.8c0-0.5,0.1-1.1,0.5-1.6c0.2-0.2,0.4-0.4,0.6-0.6
	C116.9,9.2,117.3,9,117.9,9z"/>
<path d="M104.6,8.3c-0.9-0.8-2.1-1.2-3.4-1.2c-1.4,0-2.7,0.5-3.7,1.5c-0.3,0.3-0.5,0.6-0.7,0.9c0,0.1-0.1,0.1-0.1,0.2
	c-0.5,0.8-0.7,1.7-0.7,2.7c0,1.5,0.5,2.7,1.5,3.7c1,1,2.2,1.5,3.7,1.5c1.3,0,2.5-0.4,3.4-1.2v1h2.1v-10h-2.1V8.3z M103.6,14.8
	c-0.6,0.6-1.4,0.9-2.3,0.9s-1.7-0.3-2.3-0.9c-0.6-0.6-0.9-1.4-0.9-2.4c0-0.9,0.3-1.7,0.9-2.3c0.6-0.6,1.4-0.9,2.3-0.9
	s1.7,0.3,2.3,0.9c0.6,0.6,0.9,1.4,0.9,2.3C104.5,13.3,104.2,14.1,103.6,14.8z"/>
<path d="M13.4,2.3c-0.4,0.5-0.7,1.4-0.7,2.6v1.6c0,0.5,0.2,1,0.5,1.4l1.5,1.9c0.1,0,0.1,0,0.2,0c0.8,0,1.5,0.7,1.5,1.5
	s-0.7,1.5-1.5,1.5s-1.5-0.7-1.5-1.5c0-0.2,0-0.4,0.1-0.5l-1.5-1.9c-0.5-0.7-0.8-1.5-0.8-2.3V4.9c0-1.4,0.3-2.6,0.9-3.5
	C12.9,0.5,13.8,0,15,0c1.9,0,3.5,1.2,4.2,2.8c1.7,0.5,3,2.1,3,4c0,0.4,0,0.8-0.1,1.2c1.2,0.6,2,1.9,2,3.3s-0.8,2.7-2,3.3
	c0.1,0.4,0.1,0.8,0.1,1.2c0,1.9-1.2,3.5-3,4c-0.7,1.6-2.3,2.8-4.2,2.8c-0.5,0-1-0.1-1.4-0.2l0.5-1.4c0.3,0.1,0.6,0.1,0.9,0.1
	c1.4,0,2.5-0.9,2.9-2.1l0.1-0.4l0.5-0.1c1.2-0.2,2.2-1.3,2.2-2.6c0-0.7-0.1-0.9-0.2-1.1c-0.2-0.3-0.6-0.4-0.9-0.4
	c-0.4,0-0.8,0.3-1,0.6L17.5,16c0.1,0.2,0.1,0.4,0.1,0.5c0,0.8-0.7,1.5-1.5,1.5s-1.5-0.7-1.5-1.5s0.7-1.5,1.5-1.5c0.1,0,0.2,0,0.2,0
	l0.9-1.1c0.5-0.6,1.3-1.1,2.1-1.1c0.6-0.1,1.3,0.1,1.9,0.5c0.8-0.4,1.3-1.1,1.3-2.1S22,9.5,21.2,9.2c-0.6,0.4-1.2,0.6-1.9,0.5
	c-0.8-0.1-1.5-0.5-2.1-1.1l-0.9-1.1c-0.1,0-0.1,0-0.2,0c-0.8,0-1.5-0.7-1.5-1.5s0.7-1.5,1.5-1.5s1.5,0.7,1.5,1.5
	c0,0.2,0,0.4-0.1,0.5l0.9,1.1c0.3,0.3,0.7,0.5,1,0.6c0.4,0,0.7-0.1,0.9-0.4c0.2-0.2,0.2-0.5,0.2-1.1c0-1.3-0.9-2.4-2.2-2.6L18,4.1
	l-0.1-0.4c-0.4-1.2-1.5-2.1-2.9-2.1C14.3,1.5,13.8,1.8,13.4,2.3z"/>
<path d="M6.5,16c-0.1,0.2-0.1,0.4-0.1,0.5C6.4,17.3,7,18,7.9,18s1.5-0.7,1.5-1.5c0-0.8-0.7-1.5-1.5-1.5c-0.1,0-0.2,0-0.2,0l-0.9-1.1
	c-0.5-0.6-1.3-1.1-2.1-1.1c-0.6-0.1-1.3,0.1-1.9,0.5C2,13,1.5,12.2,1.5,11.3c0-0.9,0.5-1.7,1.3-2.1c0.6,0.4,1.2,0.6,1.9,0.5
	c0.8-0.1,1.5-0.5,2.1-1.1l0.9-1.1c0.1,0,0.1,0,0.2,0c0.8,0,1.5-0.7,1.5-1.5S8.7,4.5,7.9,4.5S6.4,5.2,6.4,6c0,0.2,0,0.4,0.1,0.5
	L5.6,7.6C5.3,8,4.9,8.2,4.6,8.2c-0.4,0-0.7-0.1-0.9-0.4C3.4,7.6,3.4,7.4,3.4,6.8c0-1.3,0.9-2.4,2.2-2.6L6,4.1l0.1-0.4
	C6.5,2.4,7.6,1.5,9,1.5c0.3,0,0.6,0.1,0.9,0.1l0.5-1.4C10,0.1,9.5,0,9,0C7.1,0,5.5,1.2,4.8,2.8c-1.7,0.5-3,2.1-3,4
	c0,0.4,0,0.8,0.1,1.2c-1.2,0.6-2,1.9-2,3.3s0.8,2.7,2,3.3c-0.1,0.4-0.1,0.8-0.1,1.2c0,1.9,1.2,3.5,3,4c0.7,1.6,2.3,2.8,4.2,2.8
	c1.2,0,2.1-0.5,2.8-1.4c0.6-0.9,0.9-2.1,0.9-3.5v-1.6c0-0.9-0.3-1.7-0.8-2.3l-1.5-1.9c0.1-0.2,0.1-0.4,0.1-0.5
	c0-0.8-0.7-1.5-1.5-1.5s-1.5,0.7-1.5,1.5c0,0.8,0.7,1.5,1.5,1.5c0.1,0,0.2,0,0.2,0l1.5,1.9c0.3,0.4,0.5,0.9,0.5,1.4v1.6
	c0,1.2-0.3,2.1-0.7,2.6C10.2,20.7,9.7,21,9,21c-1.4,0-2.5-0.9-2.9-2.1L6,18.4l-0.5-0.1c-1.2-0.2-2.2-1.3-2.2-2.6
	c0-0.7,0.1-0.9,0.2-1.1c0.2-0.3,0.6-0.4,0.9-0.4c0.4,0,0.8,0.3,1,0.6L6.5,16z"/>
</svg>
