<?xml version="1.0" encoding="utf-8"?>
<!-- Generator: Adobe Illustrator 23.0.1, SVG Export Plug-In . SVG Version: 6.00 Build 0)  -->
<svg version="1.1" id="Слой_1" xmlns="http://www.w3.org/2000/svg" xmlns:xlink="http://www.w3.org/1999/xlink" x="0px" y="0px"
	 width="352.3px" height="349.9px" viewBox="0 0 352.3 349.9" style="enable-background:new 0 0 352.3 349.9;" xml:space="preserve"
	>
<style type="text/css">
	.st0{fill:#413527;}
</style>
<path class="st0" d="M320.8,178.4l18.6-2.8h4.5l0.1-1.4l-23.1-3.5c-2.2-76.4-64.1-138-140.5-139.8l-2.8-18.6V7.9l-1.4-0.1L172.6,31
	c-76.3,2.1-138,64-139.8,140.5l-18.6,2.8H9.8l-0.1,1.4l23.1,3.5c2.2,76.4,64.1,138,140.5,139.8l2.8,18.6v4.5l1.4,0.1l3.5-23.1
	C257.3,316.7,318.9,254.8,320.8,178.4z M93.1,260.1l64.3-48.2l12.3,82.3C139.9,292.4,113,279.7,93.1,260.1z M57.6,182.8l82.6,12.3
	L93.8,257l-1.9,1.9C72.2,239,59.5,212.4,57.6,182.8z M91.6,91.2l48.2,64.3l-82.3,12.3C59.3,138,72,111.2,91.6,91.2z M168.9,55.7
	l-12.3,82.6L94.7,91.9L92.8,90C112.7,70.4,139.3,57.7,168.9,55.7z M260.5,89.8L196.2,138l-12.3-82.3
	C213.7,57.5,240.5,70.2,260.5,89.8z M296,167.1l-82.6-12.3l46.4-61.9l1.9-1.9C281.3,110.8,294,137.5,296,167.1z M261.9,258.6
	l-48.2-64.3L296,182C294.3,211.8,281.6,238.7,261.9,258.6z M192.4,184.2l20,10.9l43.8,58.4l-66.1-66.1
	C191,186.4,191.8,185.3,192.4,184.2z M189,161.8c-0.9-0.9-1.9-1.7-3-2.3l11-20.2l58.4-43.8L189,161.8z M163.1,162.3
	c-0.9,1-1.8,2-2.5,3.2L141,154.9L97.3,96.5L163.1,162.3z M163.9,188.8c1,0.9,2.1,1.7,3.3,2.4l-10.6,19.4l-58.4,43.8L163.9,188.8z
	 M197,211.5l61.9,46.4l1.9,1.9c-19.8,19.6-46.5,32.4-76.1,34.3L197,211.5z M184.2,296.9c10.1-0.6,19.9-2.5,29.3-5.4l8.7,17.2
	c-12.9,4.4-26.6,7-40.8,7.4L184.2,296.9z M257.6,290.7l-8.7-17.2c12.7-9.3,23.5-21,31.8-34.3l17.8,7.3
	C288.2,264.1,274.2,279.1,257.6,290.7z M313.7,209.9l-17.8-7.3c1.6-6.8,2.6-13.7,3-20.9l19.2-2.9
	C317.7,189.5,316.2,199.9,313.7,209.9z M194.7,174.2c-0.1-2.6-0.8-5.1-1.9-7.3L213,156l121.4,18.1L194.7,174.2L194.7,174.2z
	 M298.8,167.5c-0.3-5.8-1.1-11.4-2.2-16.9l18-6.9c2,8.6,3.1,17.5,3.4,26.7L298.8,167.5z M300.4,106.6l-18,6.9
	c-8.5-14.6-19.9-27.2-33.5-37.1l8.7-17.2C275.2,71.5,289.9,87.7,300.4,106.6z M222.2,41.2l-8.7,17.2c-9.5-3-19.6-4.9-30-5.4
	l-2.9-19.2C195.1,34.1,209.1,36.7,222.2,41.2z M176.1,156.7c-2.7,0-5.2,0.7-7.5,1.7L158,138.6l18.1-121.4V156.7z M169.3,52.9
	c-10.1,0.6-19.9,2.5-29.3,5.4l-8.7-17.2c12.9-4.4,26.6-7,40.8-7.4L169.3,52.9z M96,59.1l8.7,17.2c-12.7,9.3-23.5,21-31.8,34.3
	l-17.8-7.3C65.4,85.8,79.4,70.7,96,59.1z M39.9,140l17.8,7.3c-1.6,6.8-2.6,13.7-3,20.9l-19.2,2.9C35.9,160.4,37.3,150,39.9,140z
	 M157.9,175.6c0.1,2.8,0.8,5.4,1.9,7.7l-19.3,10.4L19.1,175.6H157.9z M54.8,182.4c0.3,5.8,1.1,11.4,2.2,16.9l-18,6.9
	c-2-8.6-3.1-17.5-3.4-26.7L54.8,182.4z M53.2,243.3l18-6.9c8.5,14.6,19.9,27.2,33.5,37.1L96,290.7C78.3,278.4,63.7,262.2,53.2,243.3
	z M131.4,308.7l8.7-17.2c9.5,3,19.6,4.9,30,5.5l2.9,19.2C158.4,315.7,144.5,313.2,131.4,308.7z M177.5,193.5
	c2.7-0.2,5.3-0.9,7.5-2.1l10.6,19.8l-18.1,121.4V193.5z"/>
<polygon class="st0" points="288.5,68 295.2,58.6 301.8,49.3 292.5,55.9 283.1,62.6 285.8,65.3 "/>
<polygon class="st0" points="270.6,51.9 275.6,41.7 280.7,31.4 272.5,39.4 264.4,47.5 267.5,49.7 "/>
<polygon class="st0" points="328.9,145.8 329.5,149.6 330.1,153.4 341,149.7 351.8,146 340.3,145.9 "/>
<polygon class="st0" points="305.5,261.2 303.2,264.3 301,267.4 311.3,272.5 321.5,277.5 313.5,269.4 "/>
<polygon class="st0" points="249.7,38.6 253.1,27.7 256.4,16.7 249.7,25.9 242.9,35.2 246.3,36.9 "/>
<polygon class="st0" points="317.6,239.6 315.9,243 314.2,246.4 325.1,249.8 336,253.1 326.8,246.4 "/>
<polygon class="st0" points="227.7,29 229.3,17.7 230.9,6.3 225.6,16.5 220.4,26.7 224.1,27.8 "/>
<polygon class="st0" points="314.1,103.5 315.8,106.9 325,100 334.1,93.2 323.2,96.6 312.3,100.1 "/>
<polygon class="st0" points="204.3,22.9 204.1,11.4 203.9,0 200.3,10.9 196.7,21.7 200.5,22.3 "/>
<polygon class="st0" points="301.2,83 303.5,86.1 311.4,77.8 319.4,69.6 309.2,74.8 298.9,79.9 "/>
<polygon class="st0" points="330.6,193.3 330,197.1 329.5,200.8 340.9,200.7 352.3,200.5 341.5,196.9 "/>
<polygon class="st0" points="198.2,328.2 201.9,339 205.6,349.9 205.7,338.4 205.8,327 202,327.6 "/>
<polygon class="st0" points="228.4,320.9 224.7,322.1 221.1,323.3 226.4,333.4 231.7,343.5 230,332.2 "/>
<polygon class="st0" points="250.8,310.8 247.4,312.6 244,314.3 250.9,323.5 257.7,332.7 254.3,321.8 "/>
<polygon class="st0" points="271.3,297.4 268.2,299.7 265.1,302 273.3,309.9 281.5,317.9 276.4,307.7 "/>
<polygon class="st0" points="289.3,281.2 286.6,283.9 283.9,286.6 293.2,293.2 302.5,299.8 295.9,290.5 "/>
<polygon class="st0" points="63.8,68 66.5,65.3 69.2,62.6 59.9,55.9 50.5,49.3 57.2,58.6 "/>
<polygon class="st0" points="81.8,51.9 84.9,49.7 88,47.5 79.8,39.4 71.7,31.4 76.7,41.7 "/>
<polygon class="st0" points="22.2,153.4 22.8,149.6 23.4,145.8 12,145.9 0.6,146 11.4,149.7 "/>
<polygon class="st0" points="49.1,264.3 46.9,261.2 38.8,269.4 30.8,277.5 41.1,272.5 51.4,267.4 "/>
<polygon class="st0" points="102.6,38.6 106,36.9 109.4,35.2 102.7,25.9 95.9,16.7 99.3,27.7 "/>
<polygon class="st0" points="36.5,243 34.8,239.6 25.5,246.4 16.3,253.1 27.3,249.8 38.2,246.4 "/>
<polygon class="st0" points="124.7,29 128.3,27.8 131.9,26.7 126.7,16.5 121.4,6.3 123.1,17.7 "/>
<polygon class="st0" points="36.5,106.9 38.3,103.5 40,100.1 29.1,96.6 18.2,93.2 27.4,100 "/>
<polygon class="st0" points="155.7,21.7 152.1,10.9 148.5,0 148.3,11.4 148.1,22.9 151.9,22.3 "/>
<polygon class="st0" points="48.9,86.1 51.1,83 53.4,79.9 43.2,74.8 33,69.6 40.9,77.8 "/>
<polygon class="st0" points="22.9,200.8 22.3,197.1 21.7,193.3 10.9,196.9 0,200.5 11.4,200.7 "/>
<polygon class="st0" points="146.6,327 146.7,338.4 146.7,349.9 150.4,339 154.1,328.2 150.3,327.6 "/>
<polygon class="st0" points="124,320.9 122.3,332.2 120.7,343.5 126,333.4 131.3,323.3 127.6,322.1 "/>
<polygon class="st0" points="101.5,310.8 98.1,321.8 94.6,332.7 101.5,323.5 108.3,314.3 104.9,312.6 "/>
<polygon class="st0" points="81,297.4 75.9,307.7 70.8,317.9 79,309.9 87.2,302 84.1,299.7 "/>
<polygon class="st0" points="63.1,281.2 56.4,290.5 49.8,299.8 59.1,293.2 68.5,286.6 65.8,283.9 "/>
<polygon class="st0" points="322.3,122 323.4,125.6 324.5,129.3 334.8,124.2 345,119.1 333.6,120.5 "/>
<polygon class="st0" points="325.9,217 324.8,220.7 323.7,224.4 335,225.8 346.3,227.3 336.1,222.2 "/>
<polygon class="st0" points="27.8,129.3 28.9,125.6 30,122 18.7,120.5 7.4,119.1 17.6,124.2 "/>
<polygon class="st0" points="28.7,224.4 27.6,220.7 26.4,217 16.2,222.2 6,227.3 17.3,225.8 "/>
</svg>
