<?xml version="1.0" encoding="utf-8"?>
<!-- Generator: Adobe Illustrator 23.0.1, SVG Export Plug-In . SVG Version: 6.00 Build 0)  -->
<svg version="1.1" id="Слой_1" xmlns="http://www.w3.org/2000/svg" xmlns:xlink="http://www.w3.org/1999/xlink" x="0px" y="0px"
	 width="217.3px" height="235.8px" viewBox="0 0 217.3 235.8" style="enable-background:new 0 0 217.3 235.8;" xml:space="preserve"
	>
<style type="text/css">
	.st0{fill:#FFFFFF;}
	.st1{fill:#AD7A7A;}
	.st2{fill:#4000A5;}
	.st3{fill:#EF7726;}
	.st4{fill:#96A567;}
	.st5{fill:none;stroke:#000000;stroke-miterlimit:10;}
	.st6{fill:none;stroke:#000000;stroke-linecap:round;stroke-miterlimit:10;}
	.st7{display:none;}
	.st8{display:inline;fill:#56436E;}
</style>
<g id="Основа">
</g>
<g id="Черновой">
</g>
<g id="Заливка_2_">
	<g id="Ч_x2F_б">
		<path d="M97.2,58.4L97.2,58.4c-2.2,4.9-2.8,9.7-3.1,11.1c-0.3,1.6,0,9,0,9S94,79,93.2,79.1s-1.4-0.9-1.8-1.8s-0.8-0.4-1.5,0.3
			s-4,11-5,13s-2.3,1.7-3,1.2s-0.6-2.6-0.6-2.6l-1.6,9c0,0-0.4,2.2-2.1,2.6c-1.6,0.4-2.7,0.5-5.5-2.2c-2.7-2.7-2.7-9.3-2.7-9.3
			s-0.9,1.8-2.4,10.8c-1.4,8.5,3,12.7,2.9,15.5L48.4,80.4l10.1-22H97.2z"/>
		<path d="M145.1,102.1c-1.6,1.2-2,0.7-2.5,0.4c-0.5-0.3,0-0.5-0.2-4.9s-2.8-7.7-3.1-9.9c-0.2-2,0.2-3.9,0.3-4.2
			c-0.1,0.4-0.9,2.4-1.2,2.9c-0.3,0.6-1.7,1.3-3.1,4.4c-1.5,3.1-2.4,3.2-3.3,3.7c-0.9,0.4-0.9-2.6-1.5-3.3c-0.6-0.7-1.6,1.7-1.6,1.7
			s-6.7-18.6-13.1-22c-4.8-2.6-9.1-8.9-11.1-12.4h52.7l10.1,22l-21.6,35.3c-0.1-3.6,1.9-11.2,2.2-12.5c0.3-1.4,0.5-7.1,0.5-7.1
			S146.7,100.9,145.1,102.1z"/>
		<path class="st0" d="M103.5,46.6c-0.2,3.1-0.4,8.4,0,9.5c0.1,0.4,0.6,1.2,1.2,2.3c2,3.5,6.2,9.8,11.1,12.4
			c6.4,3.4,13.1,22,13.1,22s1-2.4,1.6-1.7c0.6,0.7,0.6,3.8,1.5,3.3c0.9-0.4,1.9-0.5,3.3-3.7c1.5-3.1,2.9-3.8,3.1-4.4
			c0.2-0.5,1-2.5,1.2-2.9c-0.1,0.4-0.6,2.3-0.3,4.2c0.3,2.2,2.9,5.5,3.1,9.9c0.2,4.4-0.3,4.6,0.2,4.9c0.4,0.3,0.9,0.8,2.5-0.4
			c1.6-1.2,3.6-6,3.6-6s-0.2,5.8-0.5,7.1c-0.3,1.3-2.3,8.9-2.2,12.5l-38,62L70.2,116c0.6-2.8-4.6-6.9-3.1-15.8s2.4-10.8,2.4-10.8
			s-0.1,6.6,2.7,9.3c2.7,2.7,3.8,2.7,5.5,2.2c1.7-0.4,2.1-2.6,2.1-2.6l1.6-9c0,0-0.1,2.1,0.6,2.6s2,0.7,3-1.2c1-2,4.3-12.3,5-13
			s1.1-1.2,1.5-0.3c0.4,0.9,1,1.9,1.8,1.8s0.9-0.6,0.9-0.6s-0.3-7.4,0-9c0.3-1.5,0.8-6.3,3.1-11.1c0.2-0.4,0.4-0.8,0.6-1.2
			c2.7-5.3,5-7.7,5.5-9.5C103.4,47.4,103.5,47,103.5,46.6z"/>
	</g>
	<g id="Итоговый_цвет">
		<path class="st1" d="M185.2,231.6c-2.1-0.7-3.6-2.1-4.4-4.2c-0.8-2.1-34.9-111.7-34.9-111.7l-1.9,3l11,102.5
			c0,4.7-1.1,7.8-3.3,9.3s-6.3,2.2-12.4,2.2l-0.1,2.6l8.7-0.1c1,0,1.9-0.1,2.7-0.1l16.4-0.2h3.1l0,0l0,0l13.1,0.2
			c0.4,0,0.7,0,1.1,0.1l10.7,0.2l-1.1-2.7C190.1,232.6,187.1,232.3,185.2,231.6z"/>
		<path class="st1" d="M30.7,231.6c2.1-0.7,3.6-2.1,4.4-4.2C35.9,225.3,70,115.7,70,115.7l1.9,3l-11,102.5c0,4.7,1.1,7.8,3.3,9.3
			c2.2,1.5,6.3,2.2,12.4,2.2l0.1,2.6l-8.7-0.1c-1,0-1.9-0.1-2.7-0.1l-16.4-0.2h-3.1l0,0l0,0l-13.1,0.2c-0.4,0-0.7,0-1.1,0.1
			l-10.7,0.2l1.1-2.7C25.8,232.6,28.8,232.3,30.7,231.6z"/>
		<path class="st2" d="M97.2,58.4L97.2,58.4c-2.2,4.9-2.8,9.7-3.1,11.1c-0.3,1.6,0,9,0,9S94,79,93.2,79.1s-1.4-0.9-1.8-1.8
			s-0.8-0.4-1.5,0.3s-4,11-5,13s-2.3,1.7-3,1.2s-0.6-2.6-0.6-2.6l-1.6,9c0,0-0.4,2.2-2.1,2.6c-1.6,0.4-2.7,0.5-5.5-2.2
			c-2.7-2.7-2.7-9.3-2.7-9.3s-0.9,1.8-2.4,10.8c-1.4,8.5,3,12.7,2.9,15.5L48.4,80.4l10.1-22H97.2z"/>
		<path class="st2" d="M145.1,102.1c-1.6,1.2-2,0.7-2.5,0.4c-0.5-0.3,0-0.5-0.2-4.9s-2.8-7.7-3.1-9.9c-0.2-2,0.2-3.9,0.3-4.2
			c-0.1,0.4-0.9,2.4-1.2,2.9c-0.3,0.6-1.7,1.3-3.1,4.4c-1.5,3.1-2.4,3.2-3.3,3.7c-0.9,0.4-0.9-2.6-1.5-3.3c-0.6-0.7-1.6,1.7-1.6,1.7
			s-6.7-18.6-13.1-22c-4.8-2.6-9.1-8.9-11.1-12.4h52.7l10.1,22l-21.6,35.3c-0.1-3.6,1.9-11.2,2.2-12.5c0.3-1.4,0.5-7.1,0.5-7.1
			S146.7,100.9,145.1,102.1z"/>
		<path class="st3" d="M103.5,46.6c-0.2,3.1-0.4,8.4,0,9.5c0.1,0.4,0.6,1.2,1.2,2.3c2,3.5,6.2,9.8,11.1,12.4
			c6.4,3.4,13.1,22,13.1,22s1-2.4,1.6-1.7c0.6,0.7,0.6,3.8,1.5,3.3c0.9-0.4,1.9-0.5,3.3-3.7c1.5-3.1,2.9-3.8,3.1-4.4
			c0.2-0.5,1-2.5,1.2-2.9c-0.1,0.4-0.6,2.3-0.3,4.2c0.3,2.2,2.9,5.5,3.1,9.9c0.2,4.4-0.3,4.6,0.2,4.9c0.4,0.3,0.9,0.8,2.5-0.4
			c1.6-1.2,3.6-6,3.6-6s-0.2,5.8-0.5,7.1c-0.3,1.3-2.3,8.9-2.2,12.5l-38,62L70.2,116c0.6-2.8-4.6-6.9-3.1-15.8s2.4-10.8,2.4-10.8
			s-0.1,6.6,2.7,9.3c2.7,2.7,3.8,2.7,5.5,2.2c1.7-0.4,2.1-2.6,2.1-2.6l1.6-9c0,0-0.1,2.1,0.6,2.6s2,0.7,3-1.2c1-2,4.3-12.3,5-13
			s1.1-1.2,1.5-0.3c0.4,0.9,1,1.9,1.8,1.8s0.9-0.6,0.9-0.6s-0.3-7.4,0-9c0.3-1.5,0.8-6.3,3.1-11.1c0.2-0.4,0.4-0.8,0.6-1.2
			c2.7-5.3,5-7.7,5.5-9.5C103.4,47.4,103.5,47,103.5,46.6z"/>
		<path class="st4" d="M103.5,46.6c-0.1,0.4-0.1,0.8-0.3,1.1c-0.5,1.8-2.8,4.2-5.5,9.5c-0.2,0.4-0.4,0.8-0.6,1.2H58.4l-10.1,22
			L70,115.7c0,0-5.6,18-12.3,39.5c-3.3,1.9-17,3.1-28.5,0.3c-9.9-2.5-15.5-7.2-20.9-17.3c-6.5-12-10.1-46.6-6.2-46.6s9.6,4,22.9-0.3
			s10.3-10.2,7.8-14.7c-2.1-4-13.5-15.1-13.2-23.4C19.8,46,48.4,32.5,54.1,30s23.8-7,27.4-10.9c3.7-3.9,9-18.1,14.2-18.6
			s28.8,6.4,40.5,12.8S162.7,29,163,31.1s-17.1,4.6-18.9,6c-1.8,1.4-3.3,3.1,0,6.1c3.3,3.1,10.9,1,15.5,1s25.2,3.2,30.7,5.2
			s25.9,11.2,26.6,15.9c0.6,4.7-19.5,16.8-18.5,23.2c1,6.3,14.3,24.4,14.8,36.6c0.4,10.6,0.6,13.7-9.5,22.9s-40.7,7.4-46.6,3.2l0,0
			c-6.1-19.6-11-35.4-11.1-35.7l0,0l21.6-35.3l-10.1-22h-52.7l0,0c-0.6-1.1-1-2-1.2-2.3C103.1,55,103.4,49.8,103.5,46.6z
			 M103.5,46.6c0.2-1.3,0.2-2.4,0.2-2.4S103.6,45.2,103.5,46.6z"/>
	</g>
</g>
<g id="Контур_1_">
	<path class="st5" d="M185.2,231.6c-2.1-0.7-3.6-2.1-4.4-4.2c-0.8-2.1-34.9-111.7-34.9-111.7l-1.9,3l11,102.5c0,4.7-1.1,7.8-3.3,9.3
		s-6.3,2.2-12.4,2.2l-0.1,2.6l8.7-0.1c1,0,1.9-0.1,2.7-0.1l16.4-0.2h3.1l0,0l0,0l13.1,0.2c0.4,0,0.7,0,1.1,0.1l10.7,0.2l-1.1-2.7
		C190.1,232.6,187.1,232.3,185.2,231.6z"/>
	<path class="st5" d="M30.7,231.6c2.1-0.7,3.6-2.1,4.4-4.2C35.9,225.3,70,115.7,70,115.7l1.9,3l-11,102.5c0,4.7,1.1,7.8,3.3,9.3
		c2.2,1.5,6.3,2.2,12.4,2.2l0.1,2.6l-8.7-0.1c-1,0-1.9-0.1-2.7-0.1l-16.4-0.2h-3.1l0,0l0,0l-13.1,0.2c-0.4,0-0.7,0-1.1,0.1
		l-10.7,0.2l1.1-2.7C25.8,232.6,28.8,232.3,30.7,231.6z"/>
	<path class="st6" d="M57.7,155.2c-3.3,1.9-17.1,3.1-28.5,0.3c-9.9-2.5-15.5-7.2-20.9-17.3c-6.5-12-10.2-46.6-6.2-46.6
		s9.6,4,22.9-0.3s10.3-10.2,7.8-14.7c-2.1-3.9-13.5-15.1-13.2-23.4C19.8,46,48.4,32.5,54.1,30s23.8-7,27.4-10.9
		c3.7-3.9,9-18.1,14.2-18.6s28.8,6.4,40.5,12.8S162.7,29,163,31.1s-17.1,4.6-18.9,6c-1.8,1.4-3.3,3.1,0,6.1c3.3,3.1,10.9,1,15.5,1
		s25.2,3.2,30.7,5.2s25.9,11.2,26.6,15.9c0.7,4.7-19.5,16.8-18.5,23.2c1,6.3,14.3,24.4,14.8,36.6c0.4,10.6,0.6,13.7-9.5,22.9
		s-40.7,7.4-46.6,3.2"/>
	<polyline class="st5" points="97.2,58.4 58.4,58.4 48.4,80.4 108,177.6 167.5,80.4 157.5,58.4 104.8,58.4 	"/>
	<path class="st5" d="M145.9,115.7c-0.1-3.6,1.9-11.2,2.2-12.5s0.5-7.1,0.5-7.1s-2,4.8-3.6,6s-2,0.7-2.5,0.4c-0.4-0.3,0-0.5-0.2-4.9
		s-2.8-7.7-3.1-9.9c-0.3-2.2,0.3-4.3,0.3-4.3s-0.9,2.4-1.2,3s-1.7,1.3-3.1,4.4c-1.5,3.1-2.4,3.2-3.3,3.7c-0.9,0.4-0.9-2.6-1.5-3.4
		c-0.6-0.7-1.6,1.7-1.6,1.7s-6.7-18.6-13.1-22s-11.6-13.1-12.3-14.7c-0.6-1.6,0.1-11.9,0.1-11.9s0.1,1.7-0.4,3.5s-2.8,4.2-5.5,9.5
		S94.4,68,94.1,69.6s0,9,0,9s-0.1,0.5-0.9,0.6s-1.4-0.9-1.8-1.8s-0.8-0.4-1.6,0.3s-4,11-5,13s-2.3,1.7-3,1.2s-0.6-2.6-0.6-2.6
		l-1.7,9c0,0-0.4,2.2-2.1,2.6s-2.7,0.5-5.5-2.2s-2.7-9.3-2.7-9.3s-0.9,1.8-2.4,10.8c-1.5,8.9,3.5,12.7,2.9,15.5"/>
</g>
<g id="Элементы" class="st7">
	<path class="st8" d="M1181,573.1c-3.9-0.3-10.4-0.6-11.7,0c-0.5,0.2-1.5,0.8-2.9,1.7c-4.4,2.9-12.1,9.1-15.3,16.2
		c-4.3,9.4-27.2,19.2-27.2,19.2s3,1.5,2.1,2.4s-4.7,0.9-4.1,2.2c0.5,1.3,0.7,2.7,4.5,4.9c3.8,2.1,4.8,4.2,5.5,4.6
		c0.7,0.4,3.1,1.5,3.6,1.7c-0.5-0.1-2.8-0.8-5.3-0.5c-2.7,0.4-6.8,4.2-12.2,4.5c-5.4,0.3-5.7-0.4-6.1,0.2c-0.4,0.7-1,1.3,0.5,3.6
		c1.5,2.4,7.4,5.2,7.4,5.2s-7.1-0.3-8.8-0.8c-1.6-0.5-11-3.4-15.4-3.2l-76.6-55.7l76.2-55.4c3.5,0.8,8.5-6.8,19.5-4.6
		c11.1,2.2,13.3,3.5,13.3,3.5s-8.2-0.1-11.6,3.9s-3.3,5.6-2.8,8s3.2,3,3.2,3l11.2,2.4c0,0-2.6-0.1-3.2,0.9s-0.9,2.9,1.5,4.4
		s15.2,6.2,16.1,7.3s1.5,1.6,0.4,2.3c-1.2,0.6-2.4,1.5-2.2,2.6c0.2,1.2,0.8,1.3,0.8,1.3s9.2-0.4,11.2,0c1.8,0.4,7.7,1.2,13.8,4.5
		c0.5,0.3,1,0.5,1.5,0.8c6.5,4,9.5,7.4,11.7,8.1C1180.1,572.9,1180.5,573,1181,573.1z"/>
	<path class="st8" d="M283.1,409.4c-7.8,3-377.6,23.9-377.6,23.9s369.8,20.8,377.6,23.9c6.3,2.5,18.8,3.9,29.1-4.3
		c10.3-8.2,9.7-19.6,9.7-19.6s0.5-11.4-9.7-19.6C302,405.5,289.4,406.9,283.1,409.4z"/>
	<polygon class="st8" points="1019,529.4 996.8,519.2 -740,579.2 996.8,639.2 1019,629.1 	"/>
</g>
</svg>
